<svg xmlns="http://www.w3.org/2000/svg" xmlns:xlink="http://www.w3.org/1999/xlink" viewBox="0 0 159.906 42.996" overflow="visible"><g><g transform="translate(0 0)"><path d="M 0 0.001 L 42.994 0.001 L 42.994 42.995 L 0 42.995 Z" fill="transparent"></path><path d="M 19.8 36.226 L 19.8 6.769 L 20.365 6.769 L 20.365 0.001 C 19.6 0.041 18.845 0.121 18.103 0.239 L 18.103 6.769 L 18.668 6.769 L 18.668 36.226 L 18.102 36.226 L 18.102 42.756 C 18.845 42.874 19.6 42.956 20.365 42.996 L 20.365 36.226 Z M 15.275 31.695 L 15.275 11.301 L 15.841 11.301 L 15.841 0.726 C 15.068 0.936 14.313 1.188 13.578 1.479 L 13.578 11.301 L 14.144 11.301 L 14.144 31.694 L 13.578 31.694 L 13.578 41.516 C 14.313 41.808 15.068 42.06 15.841 42.269 L 15.841 31.694 L 15.275 31.694 Z M 10.748 27.163 L 10.748 15.833 L 11.314 15.833 L 11.314 2.536 C 10.53 2.959 9.774 3.429 9.052 3.944 L 9.052 15.833 L 9.618 15.833 L 9.618 27.163 L 9.052 27.163 L 9.052 39.052 C 9.776 39.568 10.532 40.038 11.314 40.46 L 11.314 27.163 Z M 0 21.498 C 0 24.956 0.815 28.223 2.263 31.118 L 2.263 11.878 C 0.771 14.865 -0.004 18.158 0 21.497 Z M 6.223 22.631 L 6.223 20.365 L 6.789 20.365 L 6.789 5.801 C 5.971 6.569 5.215 7.4 4.526 8.286 L 4.526 20.366 L 5.092 20.366 L 5.092 22.631 L 4.526 22.631 L 4.526 34.711 C 5.216 35.598 5.973 36.428 6.789 37.196 L 6.789 22.632 L 6.223 22.632 Z M 37.903 22.631 L 37.903 20.365 L 38.469 20.365 L 38.469 8.285 C 37.78 7.4 37.023 6.569 36.206 5.8 L 36.206 20.364 L 36.772 20.364 L 36.772 22.63 L 36.206 22.63 L 36.206 37.194 C 37.024 36.426 37.78 35.596 38.469 34.71 L 38.469 22.63 L 37.903 22.63 Z M 33.377 27.163 L 33.377 15.833 L 33.943 15.833 L 33.943 3.944 C 33.219 3.428 32.463 2.958 31.681 2.536 L 31.681 15.833 L 32.246 15.833 L 32.246 27.163 L 31.681 27.163 L 31.681 40.46 C 32.465 40.037 33.221 39.567 33.943 39.052 L 33.943 27.163 Z M 40.731 31.119 C 42.224 28.132 42.998 24.838 42.994 21.499 C 42.994 18.04 42.179 14.773 40.731 11.877 Z M 28.851 31.695 L 28.851 11.301 L 29.417 11.301 L 29.417 1.481 C 28.678 1.187 27.922 0.935 27.154 0.727 L 27.154 11.302 L 27.72 11.302 L 27.72 31.695 L 27.154 31.695 L 27.154 42.27 C 27.927 42.06 28.682 41.808 29.417 41.517 L 29.417 31.695 Z M 24.326 36.226 L 24.326 6.769 L 24.892 6.769 L 24.892 0.238 C 24.142 0.119 23.387 0.04 22.629 0 L 22.629 6.768 L 23.195 6.768 L 23.195 36.225 L 22.629 36.225 L 22.629 42.995 C 23.394 42.955 24.149 42.873 24.891 42.755 L 24.891 36.225 L 24.326 36.225 Z" fill="rgb(250,249,245)"></path></g><path d="M 146.855 34.745 C 139.615 34.745 133.803 30.065 133.803 21.398 C 133.803 12.68 139.615 8.001 146.855 8.001 C 154.095 8.001 159.906 12.681 159.906 21.398 C 159.906 30.066 154.095 34.745 146.855 34.745 Z M 146.855 28.588 C 150.155 28.588 152.47 26.076 152.47 21.398 C 152.47 16.67 150.155 14.158 146.855 14.158 C 143.604 14.158 141.24 16.67 141.24 21.398 C 141.24 26.076 143.604 28.588 146.855 28.588 Z M 117.765 34.253 L 117.765 8.493 L 124.956 8.493 L 124.956 12.139 C 126.975 9.233 129.881 8.001 132.491 8.001 L 133.476 8.001 L 133.476 15.291 L 132.491 15.291 C 128.699 15.291 124.956 16.916 124.956 21.102 L 124.956 34.252 L 117.765 34.252 Z M 100.294 34.253 L 100.294 8.493 L 107.484 8.493 L 107.484 12.139 C 109.504 9.233 112.409 8.001 115.02 8.001 L 116.005 8.001 L 116.005 15.291 L 115.02 15.291 C 111.227 15.291 107.484 16.916 107.484 21.102 L 107.484 34.252 L 100.294 34.252 Z M 86.918 34.745 C 79.678 34.745 74.359 29.82 74.359 21.398 C 74.359 12.927 79.432 8.001 86.672 8.001 C 93.074 8.001 99.329 12.483 98.689 22.974 L 81.304 22.974 C 81.747 27.209 83.815 29.179 86.918 29.179 C 89.184 29.179 91.006 28.145 91.548 26.47 L 98.541 26.47 C 97.31 31.74 92.73 34.745 86.918 34.745 Z M 81.55 18.049 L 91.597 18.049 C 91.006 14.995 89.134 13.518 86.672 13.518 C 84.259 13.518 82.338 14.946 81.55 18.048 Z M 62.63 34.745 C 56.179 34.745 51.992 31.395 51.5 26.274 L 58.395 26.274 C 58.641 28.096 60.365 29.228 62.63 29.228 C 64.945 29.228 66.423 28.194 66.423 26.618 C 66.423 21.792 52.14 26.52 52.14 16.128 C 52.14 11.104 56.228 8.001 62.384 8.001 C 68.344 8.001 72.333 11.351 72.825 15.98 L 65.979 15.98 C 65.684 14.552 64.305 13.567 62.384 13.567 C 60.266 13.567 58.937 14.502 58.937 15.882 C 58.937 20.708 73.269 15.734 73.269 26.322 C 73.269 31.74 69.082 34.745 62.63 34.745 Z" fill="rgb(250,249,245)"></path></g></svg>